<svg version="1.0" id="图层_1" xmlns="http://www.w3.org/2000/svg" xmlns:xlink="http://www.w3.org/1999/xlink" x="0px" y="0px" viewBox="0 0 500 500" style="enable-background:new 0 0 500 500;" xml:space="preserve">
<style type="text/css">
	.st0{fill:#FFCEDA;}
	.st1{fill:#FFFDF3;}
	.st2{fill:#402694;}
	.st3{fill:none;stroke:#402694;stroke-width:1.9269;stroke-linecap:round;stroke-linejoin:round;stroke-miterlimit:10;}
	.st4{fill:#FFEBF0;}
	.st5{fill:#FFF8F8;}
	.st6{fill:none;stroke:#402694;stroke-width:1.8431;stroke-linecap:round;stroke-linejoin:round;stroke-miterlimit:10;}
	.st7{fill:#00C2B7;}
	.st8{fill:#00B0A5;}
	.st9{fill:#FFB66C;}
	.st10{fill:#FFC37E;}
	.st11{fill:none;stroke:#402694;stroke-width:1.8468;stroke-linecap:round;stroke-linejoin:round;stroke-miterlimit:10;}
	.st12{fill:#FFA74C;}
	.st13{fill:#FF9D38;}
	.st14{fill:#FFA64D;}
	.st15{fill:#FFA84F;}
	.st16{fill:#00B3A8;}
	.st17{fill:#FF5C4D;}
	.st18{fill:#FF5245;}
	.st19{fill:none;stroke:#402694;stroke-width:1.8978;stroke-linecap:round;stroke-linejoin:round;stroke-miterlimit:10;}
	.st20{fill:none;stroke:#402694;stroke-width:5.0287;stroke-linecap:round;stroke-linejoin:round;stroke-miterlimit:10;}
</style>
<path id="BACKGROUND" class="st0" d="M0,0h500v500H0V0z"></path>
<path class="st1" d="M296.5,144c0,0-1,8.3-8.3,9.8c7.2,1.5,8.3,9.8,8.3,9.8s1-8.3,8.3-9.8C297.6,152.3,296.5,144,296.5,144z"></path>
<path class="st2" d="M75.6,183.6c0,0-13.8,71.3,75.8,71.3v-19.3c0,0-62,4.2-56.4-52.3C95,183.3,75.6,183.6,75.6,183.6z"></path>
<path class="st3" d="M75.6,183.6c0,0-13.8,71.3,75.8,71.3v-19.3c0,0-61.9,3.8-56.4-52.3C95,183.3,75.6,183.6,75.6,183.6z"></path>
<path class="st4" d="M113.5,166.3c-4.9,8.4-14,13.1-14,13.1H69.9c-16.4-5.2-21-14.9-22.4-20.8c-0.3-1.6-0.3-3.1,0-4.7
	c0.4-1.9,1.4-3.7,3-5c1.8-1.4,3-1.4,3-1.4c-0.7-2.6-0.3-4.9,0.3-6.5c0.9-2.3,2.5-4.1,4.8-4.9c5-1.9,9,1.9,9,1.9l-5.7-28.8
	c-0.7-3.7,1-7.7,4.4-9.3c0.1,0,0.1-0.1,0.3-0.1c4.8-2.4,10.6,0.3,12.1,5.6l7.1,29.8l7.1-29.3c0.7-3.9,4.3-6.8,8.4-6.7h0.3
	c4.8,0.3,8.3,4.7,7.5,9.4l-4.3,31.3c1.9,1,3.6,2.2,4.9,3.3c3.9,3.5,6.2,8.3,6.5,13.1C116.1,159.7,115.4,163.2,113.5,166.3
	L113.5,166.3z"></path>
<path class="st5" d="M110.4,144.1c6.2,5.7,5.6,15.7-0.9,21.2c-7.1,6-17,7.1-26.9,7.1c-13.1,0-24.8-5.8-32.6-15.1
	c-2-2.4-1.8-6.1,0.4-8.1c1.8-1.4,3-1.4,3-1.4c-0.7-2.6-0.3-4.9,0.3-6.5c0.9-2.3,2.5-4.1,4.8-4.9c5-1.9,9,1.9,9,1.9l-5.7-28.8
	c-0.7-3.7,1-7.7,4.4-9.3c0.1,0,0.1-0.1,0.3-0.1c4.8-2.4,10.6,0.3,12.1,5.6l7.1,29.8l7.1-29.3c0.7-3.9,4.3-6.8,8.4-6.7h0.3
	c4.8,0.3,8.3,4.7,7.5,9.4l-4.3,31.3c1.9,1,3.5,2.3,4.9,3.3C109.8,143.5,110,143.8,110.4,144.1z"></path>
<path class="st6" d="M99.5,179.5c0,0,9.2-4.8,14-13.1c4.4-7.7,2.6-17.3-4.2-23.1c-1.4-1.2-3-2.4-4.9-3.3l4.3-31.3
	c0.6-4.7-2.8-9.1-7.5-9.4h-0.3c-4.1-0.3-7.5,2.8-8.4,6.7l-7.1,29.3l-7.1-29.9c-1.4-5.1-7.3-8-12.1-5.6c-0.1,0-0.1,0.1-0.3,0.1
	c-3.3,1.8-5.1,5.6-4.4,9.3l5.7,28.8c0,0-4.1-3.8-9.1-1.9c-2.3,0.9-3.9,2.8-4.8,4.9c-0.6,1.7-1,3.8-0.3,6.5c0,0-1.3,0-3,1.4
	c-2.8,2.4-3.8,6.1-3,9.6c1.3,5.8,6,15.5,22.4,20.8h29.8L99.5,179.5L99.5,179.5L99.5,179.5z"></path>
<path class="st2" d="M105.7,140.4c-0.3,0.7-1,1-1.8,0.9c-0.1,0-5.8-2-11.1-1c-2,0.4-3.7,1.9-4.4,3.9c-0.6,2-0.1,4.1,1.2,5.5
	c2.5,2.6,7,4.7,13.1,6C83.1,156,85.3,145,85.6,143.5v-0.1c1-3,3.3-5.2,6.4-5.8c6-1.3,12.3,1,12.5,1
	C105.6,138.8,106.1,139.6,105.7,140.4L105.7,140.4z M79.5,153.2c-1.2,2.8-3.7,4.4-6.5,4.7h-1c-1.2,0-2.4-0.1-3.6-0.3
	c6.7-0.6,8.6-4.9,8.9-5.5c0.9-1.8,0.6-3.8-0.6-5.2c-3.1-4.1-9.2-7.4-9.2-7.4c-0.7-0.3-1-1.2-0.6-1.9c0.3-0.7,1.2-1,1.9-0.6
	c0.3,0.1,6.7,3.6,10.2,8.3C80.2,147.4,80.7,150.4,79.5,153.2z"></path>
<path class="st2" d="M70.8,161.5c-0.7,1.8-2.2,3.2-3.9,3.7c-0.9,0.3-1.7,0.3-2.8,0.3c-2.4,0-5.1-0.7-8.4-2.2
	c10.7,2.9,12.3-2.3,12.4-2.8c0.3-1,0.3-2.3-0.3-3.2c-3.5-5.1-14.5-8.4-14.5-8.4c-0.7-0.3-1.2-1-1-1.7c0.3-0.7,1-1.2,1.7-1
	c0.4,0.1,12.1,3.6,16,9.6C71.2,157.6,71.4,159.7,70.8,161.5L70.8,161.5z"></path>
<path class="st5" d="M100.4,173.8H70.9c-1.9,0-3.7,0.6-5.1,1.8c-0.7,0.6-1.4,1.4-1.9,2.5c-1,2-1,4.5-0.1,6.5c0.9,1.4,2.3,3,5.2,3.6
	c0.7,0.1,1.4,0.1,2.2,0.1h27.9c1.2,0,2.5-0.3,3.6-0.6c0.1,0,0.3-0.1,0.4-0.1c3.8-1.7,5.4-6.2,3.6-9.9
	C105.8,175.7,103.9,173.8,100.4,173.8L100.4,173.8z"></path>
<path class="st4" d="M100.4,173.8H70.9c-1.9,0-3.7,0.6-5.1,1.8c-0.7,0.6-1.4,1.4-1.9,2.5c-1,2-1,4.5-0.1,6.5c0.9,1.4,2.3,3,5.2,3.6
	c0.7,0.1,1.4,0.1,2.2,0.1h27.9c1.2,0,2.5-0.3,3.6-0.6c0.1,0,0.3-0.1,0.4-0.1c3.8-1.7,5.4-6.2,3.6-9.9
	C105.8,175.7,103.9,173.8,100.4,173.8L100.4,173.8z"></path>
<path class="st5" d="M103.3,187.5c-0.1,0.1-0.3,0.1-0.4,0.1c-1.2,0.4-2.4,0.6-3.6,0.6H97c-23.8-0.4-23.5-14.5-23.5-14.5h27.1
	c3.6,0,5.5,1.9,6.4,3.9C108.6,181.5,107.1,186,103.3,187.5z"></path>
<path class="st6" d="M100.4,173.8H70.9c-1.9,0-3.7,0.6-5.1,1.8c-0.7,0.6-1.4,1.4-1.9,2.5c-1,2-1,4.5-0.1,6.5c0.9,1.4,2.3,3,5.2,3.6
	c0.7,0.1,1.4,0.1,2.2,0.1h27.9c1.2,0,2.5-0.3,3.6-0.6c0.1,0,0.3-0.1,0.4-0.1c3.8-1.7,5.4-6.2,3.6-9.9
	C105.8,175.7,103.9,173.8,100.4,173.8L100.4,173.8z"></path>
<path class="st2" d="M424.4,183.6c0,0,13.8,71.3-75.8,71.3v-19.3c0,0,62,4.2,56.4-52.3L424.4,183.6L424.4,183.6z"></path>
<path class="st3" d="M424.4,183.6c0,0,13.8,71.3-75.8,71.3v-19.3c0,0,61.9,3.8,56.4-52.3L424.4,183.6L424.4,183.6z"></path>
<path class="st4" d="M386.5,166.3c4.9,8.4,14,13.1,14,13.1h29.6c16.4-5.2,21-14.9,22.4-20.8c0.3-1.6,0.3-3.1,0-4.7
	c-0.4-1.9-1.4-3.7-3-5c-1.8-1.4-3-1.4-3-1.4c0.7-2.6,0.3-4.9-0.3-6.5c-0.9-2.3-2.5-4.1-4.8-4.9c-5-1.9-9,1.9-9,1.9l5.7-28.8
	c0.7-3.7-1-7.7-4.4-9.3c-0.1,0-0.1-0.1-0.3-0.1c-4.8-2.4-10.6,0.3-12.1,5.6l-7.1,29.8l-7.1-29.3c-0.7-3.9-4.3-6.8-8.4-6.7h-0.3
	c-4.8,0.3-8.3,4.7-7.5,9.4l4.3,31.3c-1.9,1-3.6,2.2-4.9,3.3c-3.9,3.5-6.2,8.3-6.5,13.1C383.9,159.7,384.6,163.2,386.5,166.3
	L386.5,166.3z"></path>
<path class="st5" d="M389.6,144.1c-6.2,5.7-5.6,15.7,0.9,21.2c7.1,6,17,7.1,26.9,7.1c13.1,0,24.8-5.8,32.6-15.1
	c2-2.4,1.8-6.1-0.4-8.1c-1.8-1.4-3-1.4-3-1.4c0.7-2.6,0.3-4.9-0.3-6.5c-0.9-2.3-2.5-4.1-4.8-4.9c-5-1.9-9,1.9-9,1.9l5.7-28.8
	c0.7-3.7-1-7.7-4.4-9.3c-0.1,0-0.1-0.1-0.3-0.1c-4.8-2.4-10.6,0.3-12.1,5.6l-7.1,29.8l-7.1-29.3c-0.7-3.9-4.3-6.8-8.4-6.7h-0.3
	c-4.8,0.3-8.3,4.7-7.5,9.4l4.3,31.3c-1.9,1-3.5,2.3-4.9,3.3C390.2,143.5,390,143.8,389.6,144.1L389.6,144.1z"></path>
<path class="st6" d="M400.5,179.5c0,0-9.2-4.8-14-13.1c-4.4-7.7-2.6-17.3,4.2-23.1c1.4-1.2,3-2.4,4.9-3.3l-4.3-31.3
	c-0.6-4.7,2.8-9.1,7.5-9.4h0.3c4.1-0.3,7.5,2.8,8.4,6.7l7.1,29.3l7.1-29.8c1.4-5.1,7.3-8,12.1-5.6c0.1,0,0.1,0.1,0.3,0.1
	c3.3,1.8,5.1,5.6,4.4,9.3l-5.7,28.8c0,0,4.1-3.8,9.1-1.9c2.3,0.9,3.9,2.8,4.8,4.9c0.6,1.7,1,3.8,0.3,6.5c0,0,1.3,0,3,1.4
	c2.8,2.4,3.8,6.1,3,9.6c-1.3,5.8-6,15.5-22.4,20.8L400.5,179.5L400.5,179.5L400.5,179.5z"></path>
<path class="st2" d="M394.3,140.4c0.3,0.7,1,1,1.8,0.9c0.1,0,5.8-2,11.1-1c2,0.4,3.7,1.9,4.4,3.9c0.6,2,0.1,4.1-1.2,5.5
	c-2.5,2.6-7,4.7-13.1,6c19.6,0.3,17.4-10.7,17.1-12.2v-0.1c-1-3-3.3-5.2-6.4-5.8c-6-1.3-12.3,1-12.5,1
	C394.4,138.8,393.9,139.6,394.3,140.4L394.3,140.4z M420.5,153.2c1.2,2.8,3.7,4.4,6.5,4.7h1c1.2,0,2.4-0.1,3.6-0.3
	c-6.7-0.6-8.6-4.9-8.9-5.5c-0.9-1.8-0.6-3.8,0.6-5.2c3.1-4.1,9.2-7.4,9.2-7.4c0.7-0.3,1-1.2,0.6-1.9c-0.3-0.7-1.2-1-1.9-0.6
	c-0.3,0.1-6.7,3.6-10.2,8.3C419.8,147.4,419.3,150.4,420.5,153.2L420.5,153.2z"></path>
<path class="st2" d="M429.2,161.5c0.7,1.8,2.2,3.2,3.9,3.7c0.9,0.3,1.7,0.3,2.8,0.3c2.4,0,5.1-0.7,8.4-2.2
	c-10.7,2.9-12.3-2.3-12.4-2.8c-0.3-1-0.3-2.3,0.3-3.2c3.5-5.1,14.5-8.4,14.5-8.4c0.7-0.3,1.2-1,1-1.7c-0.3-0.7-1-1.2-1.7-1
	c-0.4,0.1-12.1,3.6-16,9.6C428.8,157.6,428.6,159.7,429.2,161.5L429.2,161.5z"></path>
<path class="st5" d="M399.6,173.8H429c1.9,0,3.7,0.6,5.1,1.8c0.7,0.6,1.4,1.4,1.9,2.5c1,2,1,4.5,0,6.5c-0.9,1.4-2.3,3-5.2,3.6
	c-0.7,0.1-1.4,0.1-2.2,0.1h-27.9c-1.2,0-2.5-0.3-3.6-0.6c-0.1,0-0.3-0.1-0.4-0.1c-3.8-1.7-5.4-6.2-3.6-9.9
	C394.2,175.7,396.1,173.8,399.6,173.8L399.6,173.8z"></path>
<path class="st4" d="M399.6,173.8H429c1.9,0,3.7,0.6,5.1,1.8c0.7,0.6,1.4,1.4,1.9,2.5c1,2,1,4.5,0,6.5c-0.9,1.4-2.3,3-5.2,3.6
	c-0.7,0.1-1.4,0.1-2.2,0.1h-27.9c-1.2,0-2.5-0.3-3.6-0.6c-0.1,0-0.3-0.1-0.4-0.1c-3.8-1.7-5.4-6.2-3.6-9.9
	C394.2,175.7,396.1,173.8,399.6,173.8L399.6,173.8z"></path>
<path class="st5" d="M396.7,187.5c0.1,0.1,0.3,0.1,0.4,0.1c1.2,0.4,2.4,0.6,3.6,0.6h2.4c23.8-0.4,23.5-14.5,23.5-14.5h-27.1
	c-3.6,0-5.5,1.9-6.4,3.9C391.4,181.5,392.9,186,396.7,187.5z"></path>
<path class="st6" d="M399.6,173.8H429c1.9,0,3.7,0.6,5.1,1.8c0.7,0.6,1.4,1.4,1.9,2.5c1,2,1,4.5,0,6.5c-0.9,1.4-2.3,3-5.2,3.6
	c-0.7,0.1-1.4,0.1-2.2,0.1h-27.9c-1.2,0-2.5-0.3-3.6-0.6c-0.1,0-0.3-0.1-0.4-0.1c-3.8-1.7-5.4-6.2-3.6-9.9
	C394.2,175.7,396.1,173.8,399.6,173.8L399.6,173.8z"></path>
<path class="st2" d="M289.8,320.1c4.7,9.9,10.3,28.5,5.6,54.2c0,0,8.6,7.1,21.9,0c0,0,8.4-41.2-7.5-65.6c-3.2-4.9-9.7-6.5-14.8-3.7
	c-0.1,0-0.1,0.1-0.3,0.1C289.3,308.2,287.2,314.6,289.8,320.1L289.8,320.1z"></path>
<path class="st3" d="M289.8,320.1c4.7,9.9,10.3,28.5,5.6,54.2c0,0,8.6,7.1,21.9,0c0,0,8.4-41.2-7.5-65.6c-3.2-4.9-9.7-6.5-14.8-3.7
	c-0.1,0-0.1,0.1-0.3,0.1C289.3,308.2,287.2,314.6,289.8,320.1L289.8,320.1z"></path>
<path class="st7" d="M293.6,383.7l-1.7,20.9c-0.3,3.3,2.4,6.4,5.8,6.4H358c3.8,0,7.1-2.8,7.5-6.4c0.9-5.2,0.3-12.6-7.1-18
	c-4.7-3.5-10.4-4.9-16-3.6c-3,0.7-6.2,2.4-9.1,5.5c0,0-7.7-0.6-15.1-6.1C318.3,382.2,304.8,385.9,293.6,383.7L293.6,383.7z"></path>
<path class="st8" d="M365.7,404.3c-0.6,3.7-3.8,6.4-7.5,6.4h-60.4c-3.3,0-6.1-2.9-5.8-6.4l0.4-5.4c33.6,8.6,41.2-10.7,41.2-10.7
	c2.9-3.2,6.1-4.8,9.1-5.5c5.6-1.4,11.5,0.1,16,3.6C365.9,391.7,366.5,399.1,365.7,404.3L365.7,404.3z"></path>
<path class="st3" d="M293.6,383.7l-1.7,20.9c-0.3,3.3,2.4,6.4,5.8,6.4H358c3.8,0,7.1-2.8,7.5-6.4c0.9-5.2,0.3-12.6-7.1-18
	c-4.7-3.5-10.4-4.9-16-3.6c-3,0.7-6.2,2.4-9.1,5.5c0,0-7.7-0.6-15.1-6.1C318.3,382.2,304.8,385.9,293.6,383.7L293.6,383.7z"></path>
<path class="st2" d="M335.3,388.5c0,0-2.3,2.3-4.3,6.2c0,0-0.9-3.7,1.8-7.5L335.3,388.5z"></path>
<path class="st4" d="M343.7,390.2c-3.2,2.6-5.6,7-5.6,13.8l-46.1,0.3l-0.1,0.1c-1.7,2.6,0.3,6.1,3.5,6.1h64.2c4.1,0,7.4-3.3,7.4-7.4
	c0-0.9,0-1.7-0.1-2.6C366.1,389.4,352.6,383,343.7,390.2L343.7,390.2z"></path>
<path class="st3" d="M343.7,390.2c-3.2,2.6-5.6,7-5.6,13.8l-46.1,0.3l-0.1,0.1c-1.7,2.6,0.3,6.1,3.5,6.1h64.2c4.1,0,7.4-3.3,7.4-7.4
	c0-0.9,0-1.7-0.1-2.6C366.1,389.4,352.6,383,343.7,390.2L343.7,390.2z"></path>
<path class="st5" d="M362.7,401.4c-1.8,3-6.4,3.6-10.5,1.2s-6-6.7-4.3-9.8c1.8-3,6.4-3.6,10.5-1.2
	C362.7,394,364.6,398.4,362.7,401.4z M295.3,374.4c0,0-4.4,5-1.7,9.2c0,0,11,5.1,24.7-1.3c0,0,2.5-4.8-1.2-7.9
	C317.1,374.4,306.4,380.9,295.3,374.4L295.3,374.4z"></path>
<path class="st3" d="M295.3,374.4c0,0-4.4,5-1.7,9.2c0,0,11,5.1,24.7-1.3c0,0,2.5-4.8-1.2-7.9C317.1,374.4,306.4,380.9,295.3,374.4
	L295.3,374.4z"></path>
<path class="st2" d="M217.6,320.1c-4.7,9.9-10.3,28.5-5.6,54.2c0,0-8.6,7.1-21.9,0c0,0-8.4-41.2,7.5-65.6c3.2-4.9,9.7-6.5,14.8-3.7
	c0.1,0,0.1,0.1,0.3,0.1C218.1,308.2,220.1,314.6,217.6,320.1z"></path>
<path class="st3" d="M217.6,320.1c-4.7,9.9-10.3,28.5-5.6,54.2c0,0-8.6,7.1-21.9,0c0,0-8.4-41.2,7.5-65.6c3.2-4.9,9.7-6.5,14.8-3.7
	c0.1,0,0.1,0.1,0.3,0.1C218.1,308.2,220.1,314.6,217.6,320.1z"></path>
<path class="st7" d="M213.7,383.7l1.7,20.9c0.3,3.3-2.4,6.4-5.8,6.4h-60.3c-3.8,0-7.1-2.8-7.5-6.4c-0.9-5.2-0.3-12.6,7.1-18
	c4.7-3.5,10.4-4.9,16-3.6c3,0.7,6.2,2.4,9.1,5.5c0,0,7.7-0.6,15.1-6.1C189,382.2,202.5,385.9,213.7,383.7L213.7,383.7z"></path>
<path class="st8" d="M141.7,404.3c0.6,3.7,3.8,6.4,7.5,6.4h60.3c3.3,0,6.1-2.9,5.8-6.4l-0.4-5.4c-33.6,8.6-41.2-10.7-41.2-10.7
	c-2.9-3.2-6.1-4.8-9.1-5.5c-5.6-1.4-11.5,0.1-16,3.6C141.4,391.7,140.8,399.1,141.7,404.3L141.7,404.3z"></path>
<path class="st3" d="M213.7,383.7l1.7,20.9c0.3,3.3-2.4,6.4-5.8,6.4h-60.3c-3.8,0-7.1-2.8-7.5-6.4c-0.9-5.2-0.3-12.6,7.1-18
	c4.7-3.5,10.4-4.9,16-3.6c3,0.7,6.2,2.4,9.1,5.5c0,0,7.7-0.6,15.1-6.1C189,382.2,202.5,385.9,213.7,383.7L213.7,383.7z"></path>
<path class="st2" d="M172,388.5c0,0,2.3,2.3,4.3,6.2c0,0,0.9-3.7-1.8-7.5L172,388.5z"></path>
<path class="st4" d="M163.6,390.2c3.2,2.6,5.6,7,5.6,13.8l46.1,0.3l0.1,0.1c1.7,2.6-0.3,6.1-3.5,6.1h-64.2c-4.1,0-7.4-3.3-7.4-7.4
	c0-0.9,0-1.7,0.1-2.6C141.4,389.4,154.7,383,163.6,390.2L163.6,390.2z"></path>
<path class="st3" d="M163.6,390.2c3.2,2.6,5.6,7,5.6,13.8l46.1,0.3l0.1,0.1c1.7,2.6-0.3,6.1-3.5,6.1h-64.2c-4.1,0-7.4-3.3-7.4-7.4
	c0-0.9,0-1.7,0.1-2.6C141.4,389.4,154.7,383,163.6,390.2L163.6,390.2z"></path>
<path class="st5" d="M144.6,401.4c1.8,3,6.4,3.6,10.5,1.2s6-6.7,4.3-9.8c-1.8-3-6.4-3.6-10.5-1.2C144.7,394,142.8,398.4,144.6,401.4
	z M212,374.4c0,0,4.4,5,1.7,9.2c0,0-11,5.1-24.7-1.3c0,0-2.5-4.8,1.2-7.9C190.2,374.4,200.9,380.9,212,374.4L212,374.4z"></path>
<path class="st3" d="M212,374.4c0,0,4.4,5,1.7,9.2c0,0-11,5.1-24.7-1.3c0,0-2.5-4.8,1.2-7.9C190.2,374.4,200.9,380.9,212,374.4
	L212,374.4z"></path>
<path class="st9" d="M373.5,289.1c-27.5,31.3-93.9,39.5-93.9,39.5c-80.3,9.4-118.1-2.6-135.9-15.8c-15.7-11.5-18-34-5.4-48.8
	l0.7-0.7c28.3-31.7,100.8-38.6,100.8-38.6c57.9-8.1,93.1-3.2,114.2,4.7c2.8,1,5.2,2,7.5,3.2C383.2,243,389.3,271,373.5,289.1z"></path>
<path class="st10" d="M366,283.5c-26.1,29.9-89.5,37.8-89.5,37.8c-76.5,9-112.7-2.5-129.6-14.9c-13.8-10-16.7-28.9-7.9-42.7
	c28.3-31.7,100.8-38.6,100.8-38.6c57.9-8.1,93.1-3.2,114.2,4.7c0.3,0.1,0.3,0.3,0.6,0.3C375.2,239.5,381,266.2,366,283.5L366,283.5z"></path>
<path class="st11" d="M239.8,224.8c0,0-73.6,7.1-101.5,39.3c-12.6,14.7-10.3,37.3,5.4,48.8c17.8,13.1,55.6,25.1,135.9,15.7
	c0,0,66.4-8.3,93.8-39.5c15.8-18,9.7-46.1-11.9-56.4C341.6,223.2,305.3,215.6,239.8,224.8L239.8,224.8z"></path>
<path class="st12" d="M241.4,222.9c0,0,78.6-12.2,113.3,8.1c12.3,7.1,16.8,23.1,9.7,35.6c-8.7,15.1-33.1,35.3-98.3,46.6
	c-22.1,3.8-44.7,4.9-66.9,2.8c-17.6-1.8-37.2-5.6-50.4-13.8c-15.3-9.6-17.4-31.4-4.3-43.9C157.5,245.6,184.9,229.7,241.4,222.9
	L241.4,222.9z"></path>
<path class="st11" d="M241.4,222.9c0,0,78.6-12.2,113.3,8.1c12.3,7.1,16.8,23.1,9.7,35.6c-8.7,15.1-33.1,35.3-98.3,46.6
	c-22.1,3.8-44.7,4.9-66.9,2.8c-17.6-1.8-37.2-5.6-50.4-13.8c-15.3-9.6-17.4-31.4-4.3-43.9C157.5,245.6,184.9,229.7,241.4,222.9
	L241.4,222.9z"></path>
<path class="st9" d="M355.1,237c-20.5,40.1-86.1,49.1-86.1,49.1c-75.2,12.3-109.4-1.6-126.6-14.8c-10.5-8.1-14.5-21.4-11.5-33.2
	c0.1-0.4,0.3-1,0.3-1.3c1.3-4.4,3.7-8.6,7.1-12.3c28.8-30.6,106-33.7,106-33.7c45.9-3.2,74.8,0.6,92.5,5.4c5.2,1.4,9.7,4.2,13.1,7.7
	c1.7,1.7,3.1,3.7,4.3,5.7C359.1,217.8,359.8,227.9,355.1,237L355.1,237z"></path>
<path class="st10" d="M351.5,226.1c-20,39.3-84.4,48.1-84.4,48.1c-73.6,11.9-107.2-1.6-123.9-14.5c-7.4-5.7-11.6-14.2-12.2-22.9
	c1.3-4.4,3.7-8.6,7.1-12.3c28.8-30.6,106-33.7,106-33.7c45.9-3.2,74.8,0.6,92.5,5.4c5.2,1.4,9.7,4.2,13.1,7.7
	c1.7,1.7,3.1,3.7,4.3,5.7C355.1,215.1,354.3,220.7,351.5,226.1L351.5,226.1z"></path>
<path class="st11" d="M355.1,237c-20.5,40.1-86.1,49.1-86.1,49.1c-75.2,12.3-109.4-1.6-126.6-14.8c-10.5-8.1-14.5-21.4-11.5-33.2
	c1.3-4.9,3.7-9.7,7.5-13.6c28.8-30.6,106-33.8,106-33.8c45.9-3.2,74.8,0.6,92.4,5.4c5.2,1.4,9.7,4.2,13.1,7.7
	C358.2,212.4,361,225.7,355.1,237z"></path>
<path class="st12" d="M144.1,254.2c-11.6-7-13.1-23.1-3.2-32.4c12.4-11.7,40.5-26.3,103.5-31.1c0,0,62.9-5.4,93.5,6
	c9,3.3,12.9,14,8,22.2c-6.4,10.7-22.1,25.4-60.9,37.2c-30.1,9.1-61.7,12.6-93.1,10C174.6,264.9,156.2,261.5,144.1,254.2L144.1,254.2
	z"></path>
<path class="st11" d="M144.1,254.2c-11.6-7-13.1-23.1-3.2-32.4c12.4-11.7,40.5-26.3,103.5-31.1c0,0,62.9-5.4,93.5,6
	c9,3.3,12.9,14,8,22.2c-6.4,10.7-22.1,25.4-60.9,37.2c-30.1,9.1-61.7,12.6-93.1,10C174.6,264.9,156.2,261.5,144.1,254.2L144.1,254.2
	z"></path>
<path class="st9" d="M370.3,217.4c-13.6,15.8-47.9,33.1-133.4,29.3c0,0-80.5-3.9-104-34.9c-7.4-9.8-6.2-23.3,2.6-31.8l1-1
	c12.8-11.6,42-25.3,107.6-25.3c0,0,78-1.7,115.9,19.7c1.7,1,3.3,2,4.9,3.1C378.4,185.9,381,204.9,370.3,217.4z"></path>
<path class="st10" d="M361.3,208.7c-12.8,14.8-44.9,31.2-125.3,27.5c0,0-75.6-3.7-97.7-32.7c-5.5-7.3-6-16.8-1.7-24.5
	c12.8-11.6,42-25.3,107.6-25.3c0,0,78-1.7,115.9,19.7C369.4,182.9,370.4,198.2,361.3,208.7z"></path>
<path class="st11" d="M132.8,211.8c-7.4-9.7-6.2-23.3,2.6-31.8c12.2-11.7,41.1-26.4,108.6-26.4c0,0,85.3-1.8,120.7,22.8
	c13.6,9.4,16.3,28.5,5.4,40.8c-13.6,15.8-47.9,33.1-133.4,29.3C236.9,246.7,156.2,242.7,132.8,211.8L132.8,211.8z"></path>
<ellipse class="st12" cx="249" cy="188.2" rx="112.1" ry="36.7"></ellipse>
<ellipse class="st11" cx="249" cy="188.2" rx="112.1" ry="36.7"></ellipse>
<path class="st9" d="M360.4,158.4c-15.7,13.1-47.5,26.7-111.4,32.1c0,0-89.7,4.4-117.8-29c-3.7-4.4-6-9.7-6.5-15.1
	c-1-7.9,1.2-16.3,6.7-22.7c8.9-10.7,27.2-24.5,65.5-33.8c36-8.9,73.5-9.9,109.8-2.9c19.8,3.8,40.4,10.3,53.7,21.2
	c0.6,0.4,1,1,1.6,1.4C376.1,122.8,375.6,145.8,360.4,158.4L360.4,158.4z"></path>
<path class="st10" d="M353.5,148.5c-15.4,12.9-46.7,26.3-109.6,31.7c0,0-88.3,4.3-115.9-28.6c-1.3-1.6-2.5-3.3-3.5-5.1
	c-1-7.9,1.2-16.3,6.7-22.7c8.9-10.7,27.2-24.5,65.5-33.8c36-8.9,73.5-9.9,109.8-2.9c19.8,3.8,40.4,10.3,53.7,21.2
	c0.6,0.4,1,1,1.6,1.4C368.1,122.3,365.3,138.6,353.5,148.5L353.5,148.5z"></path>
<path class="st11" d="M131.2,161.5c-9.2-10.9-9.1-26.9,0-37.9c8.9-10.7,27.2-24.5,65.3-33.8c36-8.9,73.5-9.9,109.8-2.9
	c19.8,3.8,40.4,10.3,53.7,21.2c15.8,12.9,16,37,0.3,50.1s-47.5,26.7-111.4,32.1C249,190.5,159.4,194.9,131.2,161.5L131.2,161.5z"></path>
<ellipse transform="matrix(0.9974 -7.207192e-02 7.207192e-02 0.9974 -8.1647 17.9176)" class="st12" cx="244.2" cy="122.1" rx="108.9" ry="38.9"></ellipse>
<ellipse transform="matrix(0.9974 -7.207192e-02 7.207192e-02 0.9974 -8.1647 17.9176)" class="st11" cx="244.2" cy="122.1" rx="108.9" ry="38.9"></ellipse>
<path class="st13" d="M342.9,93.8c-32.6-19-89.4-16.1-89.4-16.1c-70,2.2-102.7,25.3-102.7,25.3s-29,14.8-26.9,50.1
	c0,0,0.3,4.4,2.2,9.1c4.2,10.6,19.2,11.5,24.1,1c0-0.1,0.1-0.1,0.1-0.3v0.6c0.3,12.3,15.7,17.9,23.8,8.6c2-2.4,4.1-5.6,5.6-10.3
	c31.3,5.2,67,0.9,67,0.9c64-6.8,91.4-20.8,102.5-33.7C358.6,118.2,355.6,101.2,342.9,93.8L342.9,93.8z"></path>
<path class="st11" d="M342.9,93.8c-32.6-19-89.4-16.1-89.4-16.1c-70,2.2-102.7,25.3-102.7,25.3s-29,14.8-26.9,50.1
	c0,0,0.3,4.4,2.2,9.1c4.2,10.6,19.2,11.5,24.1,1c0-0.1,0.1-0.1,0.1-0.3v0.6c0.3,12.3,15.7,17.9,23.8,8.6c2-2.4,4.1-5.6,5.6-10.3
	c31.3,5.2,67,0.9,67,0.9c64-6.8,91.4-20.8,102.5-33.7C358.6,118.2,355.6,101.2,342.9,93.8L342.9,93.8z"></path>
<ellipse transform="matrix(0.1251 -0.9921 0.9921 0.1251 -27.0739 267.1595)" class="st14" cx="137.9" cy="148.9" rx="16.3" ry="10.4"></ellipse>
<path class="st14" d="M170.1,160.6c-0.9,7-5.1,12.1-9.6,11.5c-4.4-0.6-7.3-6.5-6.4-13.5c0.9-7,5.1-12.1,9.6-11.5
	C168.1,147.5,171,153.6,170.1,160.6z"></path>
<path class="st2" d="M178.4,162.1c0,0,1.7-4.2,2.6-9.9c0,0,1.9,3.6,0,10.4L178.4,162.1z"></path>
<ellipse transform="matrix(0.5 -0.866 0.866 0.5 74.4951 341.4305)" class="st14" cx="332.9" cy="106.2" rx="11.1" ry="17.9"></ellipse>
<path class="st15" d="M223.7,126.4c-1.4,0.3-3,0.3-4.4-0.1l-30.6-7.1c-4.5-1-7.9-5-8.3-9.7l-1-14.8c-0.1-2.2,0.3-4.2,1.3-6l31.3,9.7
	c1.4,0.4,3,0.4,4.4,0.1L223.7,126.4z"></path>
<path class="st9" d="M246.7,76.5L220.1,97c-1,0.9-2.2,1.3-3.5,1.6c-1.4,0.3-3,0.3-4.4-0.1l-31.3-9.7c0.7-1.3,1.8-2.6,3.1-3.5
	L207.1,69c2.5-1.8,5.7-2.4,8.9-1.7l26,6.5C243.8,74.3,245.3,75.2,246.7,76.5z"></path>
<path class="st13" d="M249.4,107.6l-21,16.7c-1.3,1-3,1.8-4.7,2.2l-7.1-27.9c1.2-0.3,2.4-0.9,3.5-1.6l26.6-20.5
	c1.4,1.4,2.5,3.2,3,5.4l3.5,15.1C254.1,100.9,252.6,105,249.4,107.6z"></path>
<path class="st11" d="M223.7,126.4c-1.4,0.3-3,0.3-4.4-0.1l-30.6-7.1c-4.5-1-7.9-5-8.3-9.7l-1-14.8c-0.1-2.2,0.3-4.2,1.3-6l31.3,9.7
	c1.4,0.4,3,0.4,4.4,0.1L223.7,126.4z"></path>
<path class="st11" d="M246.7,76.5L220.1,97c-1,0.9-2.2,1.3-3.5,1.6c-1.4,0.3-3,0.3-4.4-0.1l-31.3-9.7c0.7-1.3,1.8-2.6,3.1-3.5
	L207.1,69c2.5-1.8,5.7-2.4,8.9-1.7l26,6.5C243.8,74.3,245.3,75.2,246.7,76.5z"></path>
<path class="st11" d="M249.4,107.6l-21,16.7c-1.3,1-3,1.8-4.7,2.2l-7.1-27.9c1.2-0.3,2.4-0.9,3.5-1.6l26.6-20.5
	c1.4,1.4,2.5,3.2,3,5.4l3.5,15.1C254.1,100.9,252.6,105,249.4,107.6z"></path>
<path class="st2" d="M306.9,103.4c0,0-31.1-27.5-57.7,4.2C249.4,107.6,274.4,132.7,306.9,103.4z"></path>
<path class="st11" d="M306.9,103.4c0,0-31.1-27.5-57.7,4.2C249.4,107.6,274.4,132.7,306.9,103.4z"></path>
<path class="st7" d="M291.4,68.7c0,0-0.4,40.5-42,38.9c0,0-0.4-4.2,0.3-9.8C251.3,85.1,259,64.8,291.4,68.7z"></path>
<path class="st16" d="M291.4,68.7c0,0-0.4,40.5-42,38.9c0,0-0.4-4.2,0.3-9.8C281.2,100.4,291.4,68.7,291.4,68.7z"></path>
<path class="st11" d="M249.4,107.6c0,0-4.8-44.6,42-38.9C291.4,68.7,291,109.2,249.4,107.6z"></path>
<path class="st5" d="M240.1,197.7c0,14.7-4.5,27.7-11.5,35.9c-4.7,5.5-10.5,8.7-16.7,8.7c-15.7,0-28.3-19.9-28.3-44.6
	s12.6-44.6,28.3-44.6c11.8,0,22.1,11.6,26.3,27.9C239.4,186.2,240.1,191.8,240.1,197.7z"></path>
<path class="st11" d="M240.1,197.7c0,14.7-4.5,27.7-11.5,35.9l0,0c-4.7,5.5-10.5,8.7-16.7,8.7c-15.7,0-28.3-19.9-28.3-44.6
	s12.6-44.6,28.3-44.6c11.8,0,22.1,11.6,26.3,27.9C239.4,186.2,240.1,191.8,240.1,197.7z"></path>
<path class="st2" d="M240.1,197.7c0,14.7-4.5,27.7-11.5,35.9c-2.3,1.3-4.9,2-7.4,2c-11.9,0-21.8-15.1-21.8-33.6s9.7-33.6,21.8-33.6
	c6.8,0,12.9,4.9,17,12.5C239.4,186.2,240.1,191.8,240.1,197.7z"></path>
<path class="st5" d="M193.6,211.6l19.7,6.1l-17.8,6.1L193.6,211.6z"></path>
<path class="st4" d="M239.4,187.5c-25.7,6.5-50.1,0.7-54.9-0.6c3.1-19.3,14.2-33.7,27.5-33.7S236.4,167.7,239.4,187.5z"></path>
<path class="st11" d="M239.4,187.5c-25.7,6.5-50.1,0.7-54.9-0.6c3.1-19.3,14.2-33.7,27.5-33.7S236.4,167.7,239.4,187.5z"></path>
<path class="st5" d="M230,181.1c-3.8,4.3-12.3,3-18.7-2.9c-6.4-5.8-8.6-14.1-4.8-18.4c3.8-4.3,12.3-3,18.7,2.9
	C231.7,168.6,233.9,176.8,230,181.1z M320.3,197.7c0,14.7-4.5,27.7-11.5,35.9c-4.7,5.5-10.5,8.7-16.7,8.7
	c-15.7,0-28.3-19.9-28.3-44.6s12.6-44.6,28.3-44.6c11.8,0,22.1,11.6,26.3,27.9C319.6,186.2,320.3,191.8,320.3,197.7L320.3,197.7z"></path>
<path class="st11" d="M320.3,197.7c0,14.7-4.5,27.7-11.5,35.9l0,0c-4.7,5.5-10.5,8.7-16.7,8.7c-15.7,0-28.3-19.9-28.3-44.6
	s12.6-44.6,28.3-44.6c11.8,0,22.1,11.6,26.3,27.9C319.6,186.2,320.3,191.8,320.3,197.7L320.3,197.7z"></path>
<path class="st2" d="M320.3,197.7c0,14.7-4.5,27.7-11.5,35.9c-2.3,1.3-4.9,2-7.4,2c-11.9,0-21.8-15.1-21.8-33.6s9.7-33.6,21.8-33.6
	c6.8,0,12.9,4.9,17,12.5C319.6,186.2,320.3,191.8,320.3,197.7z"></path>
<path class="st5" d="M273.8,211.6l19.8,6.1l-17.9,6.1L273.8,211.6z"></path>
<path class="st4" d="M319.5,187.5c-25.7,6.5-50.1,0.7-54.9-0.6c3.1-19.3,14.2-33.7,27.5-33.7C305.5,153.2,316.7,167.7,319.5,187.5z"></path>
<path class="st11" d="M319.5,187.5c-25.7,6.5-50.1,0.7-54.9-0.6c3.1-19.3,14.2-33.7,27.5-33.7C305.5,153.2,316.7,167.7,319.5,187.5z"></path>
<path class="st5" d="M310.1,181.1c-3.8,4.3-12.3,3-18.7-2.9c-6.4-5.8-8.6-14.1-4.8-18.4c3.8-4.3,12.3-3,18.7,2.9
	C311.9,168.6,314,176.8,310.1,181.1z"></path>
<circle class="st17" cx="186.2" cy="237.1" r="12.4"></circle>
<circle class="st17" cx="316.9" cy="237.1" r="12.4"></circle>
<path class="st18" d="M262.1,237.1c0,4.5-4.7,8.1-10.5,8.1s-10.5-3.7-10.5-8.1c0-4.5,4.7-8.1,10.5-8.1
	C257.4,229,262.1,232.7,262.1,237.1z"></path>
<path class="st17" d="M259.2,235.6c0,2.8-3.2,4.9-7.3,4.9s-7.3-2.2-7.3-4.9c0-2.8,3.2-4.9,7.3-4.9
	C256,230.6,259.2,232.8,259.2,235.6z"></path>
<path class="st2" d="M261.9,238.6c0.1-0.4,0.1-0.9,0.1-1.3c0-4.5-4.7-8.1-10.5-8.1c-4.3,0-8,2-9.7,4.9c0.1-4.4,4.9-8,10.9-8
	c6.1,0,10.9,3.7,10.9,8.1C263.8,235.7,263.1,237.3,261.9,238.6L261.9,238.6z M224.1,266.5c2.2,5.1,6.4,11.2,15.1,15.1
	c12.1,5.4,26.3,3.5,36.2-5.2c2.4-2,4.4-4.4,6-7.3c1.7-3.2,2.3-7,1.3-10.4c-0.6-2.2-1.9-4.3-4.4-5.7c-1-0.6-2.4-1-3.9-1.2
	c-1.6-0.3-3.2,0-4.8,0.3c-4.8,1-19.2,3.5-30.5-0.3c0,0-2-0.7-4.8-0.7c-1.2,0-2.4,0.3-3.5,0.6C224.8,253.4,221.4,260.3,224.1,266.5
	L224.1,266.5z"></path>
<path class="st5" d="M230.8,251.5c2.9,7.4,14,12.3,26.6,11c9.1-0.9,16.7-4.7,20.9-9.7c-1-0.6-2.4-1-3.9-1.2c-1.6-0.3-3.2,0-4.8,0.3
	c-4.8,1-19.2,3.5-30.5-0.3c0,0-2-0.7-4.8-0.7C232.9,251,231.8,251.2,230.8,251.5L230.8,251.5z"></path>
<path class="st18" d="M232.3,277.4c1.9,1.6,4.2,3,6.8,4.2c10,4.5,21.8,3.8,31.1-1.6c-0.3-0.6-4.5-11.3-17.8-3.8
	C252.4,276.2,245.3,264.9,232.3,277.4L232.3,277.4z"></path>
<path class="st19" d="M224.1,266.5c2.2,5.1,6.4,11.2,15.1,15.1c12.1,5.4,26.3,3.5,36.2-5.2c2.4-2,4.4-4.4,6-7.3
	c1.7-3.2,2.3-7,1.3-10.4c-0.6-2.2-1.9-4.3-4.4-5.7c-1-0.6-2.4-1-3.9-1.2c-1.6-0.3-3.2,0-4.8,0.3c-4.8,1-19.2,3.5-30.5-0.3
	c0,0-2-0.7-4.8-0.7c-1.2,0-2.4,0.3-3.5,0.6C224.8,253.4,221.4,260.3,224.1,266.5L224.1,266.5z"></path>
<path class="st20" d="M190.3,149c0,0,7.1-11.6,21.5-10 M315.3,149c0,0-7.1-11.6-21.5-10"></path>
</svg>
